RobotoExtremo-wdth151.ufo
<glyph name="less" format="2">
  <advance width="1272"/>
  <unicode hex="003C"/>
  <outline>
    <contour>
      <point x="1094" y="218" type="line"/>
      <point x="170" y="599" type="line"/>
      <point x="170" y="749" type="line"/>
      <point x="1094" y="1130" type="line"/>
      <point x="1094" y="934" type="line"/>
      <point x="412" y="674" type="line"/>
      <point x="1094" y="414" type="line"/>
    </contour>
  </outline>
</glyph>
<glyph name="C" format="2">
  <advance width="1490"/>
  <unicode hex="0043"/>
  <anchor x="720" y="0" name="bottom"/>
  <outline>
    <contour>
      <point x="115" y="697" type="qcurve" smooth="yes"/>
      <point x="115" y="759" type="line" smooth="yes"/>
      <point x="115" y="1117.0"/>
      <point x="508" y="1486"/>
      <point x="806" y="1486" type="qcurve" smooth="yes"/>
      <point x="1102" y="1486"/>
      <point x="1417" y="1214"/>
      <point x="1439" y="998" type="qcurve" smooth="yes"/>
      <point x="1440" y="988" type="line"/>
      <point x="1238" y="988" type="line"/>
      <point x="1237" y="998" type="line" smooth="yes"/>
      <point x="1224" y="1131"/>
      <point x="1020" y="1317"/>
      <point x="806" y="1317" type="qcurve" smooth="yes"/>
      <point x="592" y="1317"/>
      <point x="319" y="1035.0"/>
      <point x="319" y="759" type="qcurve" smooth="yes"/>
      <point x="319" y="697" type="line" smooth="yes"/>
      <point x="319" y="411.0"/>
      <point x="592" y="139"/>
      <point x="806" y="139" type="qcurve" smooth="yes"/>
      <point x="1020" y="139"/>
      <point x="1224" y="325"/>
      <point x="1237" y="458" type="qcurve" smooth="yes"/>
      <point x="1238" y="468" type="line"/>
      <point x="1440" y="468" type="line"/>
      <point x="1439" y="458" type="line" smooth="yes"/>
      <point x="1417" y="242"/>
      <point x="1102" y="-30"/>
      <point x="806" y="-30" type="qcurve" smooth="yes"/>
      <point x="508" y="-30"/>
      <point x="115" y="329.0"/>
    </contour>
  </outline>
</glyph>
<glyph name="D" format="2">
  <advance width="1525"/>
  <unicode hex="0044"/>
  <outline>
    <contour>
      <point x="170" y="0" type="line"/>
      <point x="170" y="1456" type="line"/>
      <point x="666" y="1456" type="line" smooth="yes"/>
      <point x="985" y="1456"/>
      <point x="1410.0" y="1093.0"/>
      <point x="1410" y="759" type="qcurve" smooth="yes"/>
      <point x="1410" y="697" type="line" smooth="yes"/>
      <point x="1410.0" y="363.0"/>
      <point x="985" y="0"/>
      <point x="666" y="0" type="qcurve" smooth="yes"/>
    </contour>
    <contour>
      <point x="372" y="163" type="line"/>
      <point x="666" y="163" type="line" smooth="yes"/>
      <point x="913" y="163"/>
      <point x="1206.0" y="431.0"/>
      <point x="1206" y="697" type="qcurve" smooth="yes"/>
      <point x="1206" y="759" type="line" smooth="yes"/>
      <point x="1206.0" y="1025.0"/>
      <point x="913" y="1293"/>
      <point x="666" y="1293" type="qcurve" smooth="yes"/>
      <point x="372" y="1293" type="line"/>
    </contour>
  </outline>
</glyph>
<glyph name="E" format="2">
  <advance width="1293"/>
  <unicode hex="0045"/>
  <anchor x="626" y="1432" name="top"/>
  <outline>
    <contour>
      <point x="170" y="0" type="line"/>
      <point x="170" y="1456" type="line"/>
      <point x="1214" y="1456" type="line"/>
      <point x="1214" y="1293" type="line"/>
      <point x="372" y="1293" type="line"/>
      <point x="372" y="832" type="line"/>
      <point x="1110" y="832" type="line"/>
      <point x="1110" y="670" type="line"/>
      <point x="372" y="670" type="line"/>
      <point x="372" y="163" type="line"/>
      <point x="1225" y="163" type="line"/>
      <point x="1225" y="0" type="line"/>
    </contour>
  </outline>
</glyph>
<glyph name="M" format="2">
  <advance width="1986"/>
  <unicode hex="004D"/>
  <outline>
    <contour>
      <point x="170" y="0" type="line"/>
      <point x="170" y="1456" type="line"/>
      <point x="432" y="1456" type="line"/>
      <point x="937" y="340" type="line" smooth="yes"/>
      <point x="951" y="310"/>
      <point x="980" y="251"/>
      <point x="989" y="231" type="qcurve"/>
      <point x="997" y="231" type="line"/>
      <point x="1006" y="251"/>
      <point x="1030" y="310"/>
      <point x="1044" y="340" type="qcurve" smooth="yes"/>
      <point x="1554" y="1456" type="line"/>
      <point x="1816" y="1456" type="line"/>
      <point x="1816" y="0" type="line"/>
      <point x="1620" y="0" type="line"/>
      <point x="1620" y="1083" type="line" smooth="yes"/>
      <point x="1620.0" y="1113.0"/>
      <point x="1624" y="1188"/>
      <point x="1627" y="1218" type="qcurve"/>
      <point x="1619" y="1218" type="line"/>
      <point x="1612" y="1188"/>
      <point x="1586" y="1113"/>
      <point x="1572" y="1083" type="qcurve" smooth="yes"/>
      <point x="1080" y="0" type="line"/>
      <point x="897" y="0" type="line"/>
      <point x="406" y="1083" type="line" smooth="yes"/>
      <point x="392" y="1113"/>
      <point x="365" y="1188"/>
      <point x="358" y="1218" type="qcurve"/>
      <point x="350" y="1218" type="line"/>
      <point x="353" y="1188"/>
      <point x="358.0" y="1113.0"/>
      <point x="358" y="1083" type="qcurve" smooth="yes"/>
      <point x="358" y="0" type="line"/>
    </contour>
  </outline>
</glyph>
<glyph name="N" format="2">
  <advance width="1614"/>
  <unicode hex="004E"/>
  <anchor x="740" y="1432" name="top"/>
  <outline>
    <contour>
      <point x="170" y="0" type="line"/>
      <point x="170" y="1456" type="line"/>
      <point x="382" y="1456" type="line"/>
      <point x="1172" y="393" type="line" smooth="yes"/>
      <point x="1194" y="363"/>
      <point x="1232" y="303"/>
      <point x="1246" y="279" type="qcurve"/>
      <point x="1254" y="279" type="line"/>
      <point x="1251" y="309"/>
      <point x="1248.0" y="383.0"/>
      <point x="1248" y="413" type="qcurve" smooth="yes"/>
      <point x="1248" y="1456" type="line"/>
      <point x="1444" y="1456" type="line"/>
      <point x="1444" y="0" type="line"/>
      <point x="1230" y="0" type="line"/>
      <point x="442" y="1061" type="line" smooth="yes"/>
      <point x="420" y="1091"/>
      <point x="380" y="1151"/>
      <point x="366" y="1175" type="qcurve"/>
      <point x="358" y="1175" type="line"/>
      <point x="361" y="1145"/>
      <point x="364.0" y="1071.0"/>
      <point x="364" y="1041" type="qcurve" smooth="yes"/>
      <point x="364" y="0" type="line"/>
    </contour>
  </outline>
</glyph>
<glyph name="O" format="2">
  <advance width="1634"/>
  <unicode hex="004F"/>
  <anchor x="730" y="1432" name="top"/>
  <outline>
    <contour>
      <point x="115" y="697" type="qcurve" smooth="yes"/>
      <point x="115" y="759" type="line" smooth="yes"/>
      <point x="115" y="1117.0"/>
      <point x="508" y="1486"/>
      <point x="817" y="1486" type="qcurve" smooth="yes"/>
      <point x="1125" y="1486"/>
      <point x="1519.0" y="1117.0"/>
      <point x="1519" y="759" type="qcurve" smooth="yes"/>
      <point x="1519" y="697" type="line" smooth="yes"/>
      <point x="1519.0" y="339.0"/>
      <point x="1125" y="-30"/>
      <point x="817" y="-30" type="qcurve" smooth="yes"/>
      <point x="509" y="-30"/>
      <point x="115" y="339.0"/>
    </contour>
    <contour>
      <point x="319" y="697" type="line" smooth="yes"/>
      <point x="319" y="421.0"/>
      <point x="592" y="139"/>
      <point x="817" y="139" type="qcurve" smooth="yes"/>
      <point x="1042" y="139"/>
      <point x="1315.0" y="421.0"/>
      <point x="1315" y="697" type="qcurve" smooth="yes"/>
      <point x="1315" y="759" type="line" smooth="yes"/>
      <point x="1315.0" y="1035.0"/>
      <point x="1042" y="1317"/>
      <point x="817" y="1317" type="qcurve" smooth="yes"/>
      <point x="592" y="1317"/>
      <point x="319" y="1035.0"/>
      <point x="319" y="759" type="qcurve" smooth="yes"/>
    </contour>
  </outline>
</glyph>
<glyph name="c" format="2">
  <advance width="1218"/>
  <unicode hex="0063"/>
  <anchor x="571.0" y="0.0" name="bottom"/>
  <outline>
    <contour>
      <point x="85" y="510" type="qcurve" smooth="yes"/>
      <point x="85" y="542" type="line" smooth="yes"/>
      <point x="85" y="780.0"/>
      <point x="396" y="1082"/>
      <point x="668" y="1082" type="qcurve" smooth="yes"/>
      <point x="921" y="1082"/>
      <point x="1182.0" y="854.0"/>
      <point x="1182" y="713" type="qcurve" smooth="yes"/>
      <point x="1182" y="708" type="line"/>
      <point x="993" y="708" type="line"/>
      <point x="993" y="713" type="line" smooth="yes"/>
      <point x="993.0" y="807.0"/>
      <point x="838" y="925"/>
      <point x="668" y="925" type="qcurve" smooth="yes"/>
      <point x="471" y="925"/>
      <point x="284.0" y="713.0"/>
      <point x="284" y="542" type="qcurve" smooth="yes"/>
      <point x="284" y="510" type="line" smooth="yes"/>
      <point x="284.0" y="339.0"/>
      <point x="471" y="127"/>
      <point x="668" y="127" type="qcurve" smooth="yes"/>
      <point x="838" y="127"/>
      <point x="993.0" y="245.0"/>
      <point x="993" y="339" type="qcurve" smooth="yes"/>
      <point x="993" y="344" type="line"/>
      <point x="1182" y="344" type="line"/>
      <point x="1182" y="339" type="line" smooth="yes"/>
      <point x="1182.0" y="198.0"/>
      <point x="921" y="-30"/>
      <point x="668" y="-30" type="qcurve" smooth="yes"/>
      <point x="396" y="-30"/>
      <point x="85" y="272.0"/>
    </contour>
  </outline>
</glyph>
<glyph name="e" format="2">
  <advance width="1248"/>
  <unicode hex="0065"/>
  <anchor x="558.0" y="1053.0" name="top"/>
  <outline>
    <contour>
      <point x="85" y="510" type="qcurve" smooth="yes"/>
      <point x="85" y="542" type="line" smooth="yes"/>
      <point x="85" y="780.0"/>
      <point x="398" y="1082"/>
      <point x="656" y="1082" type="qcurve" smooth="yes"/>
      <point x="914" y="1082"/>
      <point x="1192.0" y="800.0"/>
      <point x="1192" y="560" type="qcurve" smooth="yes"/>
      <point x="1192" y="481" type="line"/>
      <point x="198" y="481" type="line"/>
      <point x="198" y="634" type="line"/>
      <point x="996" y="634" type="line"/>
      <point x="996" y="632" type="line"/>
      <point x="996" y="768"/>
      <point x="841" y="924"/>
      <point x="656" y="924" type="qcurve" smooth="yes"/>
      <point x="472" y="924"/>
      <point x="282.0" y="713.0"/>
      <point x="282" y="542" type="qcurve" smooth="yes"/>
      <point x="282" y="510" type="line" smooth="yes"/>
      <point x="282.0" y="339.0"/>
      <point x="482" y="128"/>
      <point x="691" y="128" type="qcurve" smooth="yes"/>
      <point x="817" y="128"/>
      <point x="1000" y="218"/>
      <point x="1055" y="279" type="qcurve"/>
      <point x="1180" y="175" type="line"/>
      <point x="1122" y="100"/>
      <point x="870" y="-30"/>
      <point x="691" y="-30" type="qcurve" smooth="yes"/>
      <point x="398" y="-30"/>
      <point x="85" y="272.0"/>
    </contour>
  </outline>
</glyph>
<glyph name="o" format="2">
  <advance width="1360"/>
  <unicode hex="006F"/>
  <anchor x="581" y="1052" name="top"/>
  <outline>
    <contour>
      <point x="85" y="510" type="qcurve" smooth="yes"/>
      <point x="85" y="542" type="line" smooth="yes"/>
      <point x="85" y="790.0"/>
      <point x="409" y="1082"/>
      <point x="680" y="1082" type="qcurve" smooth="yes"/>
      <point x="951" y="1082"/>
      <point x="1275.0" y="790.0"/>
      <point x="1275" y="542" type="qcurve" smooth="yes"/>
      <point x="1275" y="510" type="line" smooth="yes"/>
      <point x="1275.0" y="262.0"/>
      <point x="951" y="-30"/>
      <point x="680" y="-30" type="qcurve" smooth="yes"/>
      <point x="409" y="-30"/>
      <point x="85" y="262.0"/>
    </contour>
    <contour>
      <point x="284" y="542" type="qcurve" smooth="yes"/>
      <point x="284" y="510" type="line" smooth="yes"/>
      <point x="284.0" y="340.0"/>
      <point x="484" y="128"/>
      <point x="680" y="128" type="qcurve" smooth="yes"/>
      <point x="876" y="128"/>
      <point x="1076.0" y="340.0"/>
      <point x="1076" y="510" type="qcurve" smooth="yes"/>
      <point x="1076" y="542" type="line" smooth="yes"/>
      <point x="1076.0" y="712.0"/>
      <point x="876" y="924"/>
      <point x="680" y="924" type="qcurve" smooth="yes"/>
      <point x="484" y="924"/>
      <point x="284.0" y="712.0"/>
    </contour>
  </outline>
</glyph>
<glyph name="p" format="2">
  <advance width="1358"/>
  <unicode hex="0070"/>
  <outline>
    <contour>
      <point x="148" y="-416" type="line"/>
      <point x="148" y="1052" type="line"/>
      <point x="326" y="1052" type="line"/>
      <point x="335" y="900" type="line"/>
      <point x="338" y="900" type="line"/>
      <point x="392" y="971"/>
      <point x="604" y="1072"/>
      <point x="746" y="1072" type="qcurve" smooth="yes"/>
      <point x="985" y="1072"/>
      <point x="1272.0" y="782.0"/>
      <point x="1272" y="542" type="qcurve" smooth="yes"/>
      <point x="1272" y="510" type="line" smooth="yes"/>
      <point x="1272.0" y="270.0"/>
      <point x="985" y="-20"/>
      <point x="746" y="-20" type="qcurve" smooth="yes"/>
      <point x="604" y="-20"/>
      <point x="404" y="68"/>
      <point x="343" y="139" type="qcurve"/>
      <point x="343" y="-416" type="line"/>
    </contour>
    <contour>
      <point x="343" y="332" type="line"/>
      <point x="383" y="256"/>
      <point x="566" y="138"/>
      <point x="696" y="138" type="qcurve" smooth="yes"/>
      <point x="891" y="138"/>
      <point x="1072.0" y="342.0"/>
      <point x="1072" y="510" type="qcurve" smooth="yes"/>
      <point x="1072" y="542" type="line" smooth="yes"/>
      <point x="1072.0" y="710.0"/>
      <point x="891" y="914"/>
      <point x="696" y="914" type="qcurve" smooth="yes"/>
      <point x="566" y="914"/>
      <point x="384" y="796"/>
      <point x="343" y="720" type="qcurve"/>
    </contour>
  </outline>
</glyph>
<glyph name="y" format="2">
  <advance width="1123"/>
  <unicode hex="0079"/>
  <anchor x="480" y="1052" name="top"/>
  <outline>
    <contour>
      <point x="60" y="-416" type="qcurve"/>
      <point x="60" y="-254" type="line"/>
      <point x="92" y="-262"/>
      <point x="168" y="-272"/>
      <point x="203" y="-272" type="qcurve" smooth="yes"/>
      <point x="290" y="-272"/>
      <point x="404" y="-196"/>
      <point x="485" y="9" type="qcurve"/>
      <point x="485" y="10" type="line"/>
      <point x="10" y="1052" type="line"/>
      <point x="211" y="1052" type="line"/>
      <point x="518" y="354" type="line" smooth="yes"/>
      <point x="536" y="314"/>
      <point x="566" y="234"/>
      <point x="576" y="194" type="qcurve"/>
      <point x="582" y="194" type="line"/>
      <point x="593" y="234"/>
      <point x="622" y="314"/>
      <point x="638" y="354" type="qcurve" smooth="yes"/>
      <point x="936" y="1052" type="line"/>
      <point x="1129" y="1052" type="line"/>
      <point x="602" y="-140" type="line" smooth="yes"/>
      <point x="540" y="-278"/>
      <point x="354" y="-436"/>
      <point x="216" y="-436" type="qcurve" smooth="yes"/>
      <point x="168" y="-436"/>
      <point x="94" y="-426"/>
    </contour>
  </outline>
</glyph>
<glyph name="logicalnot" format="2">
  <advance width="1154"/>
  <unicode hex="00AC"/>
  <outline>
    <contour>
      <point x="1058" y="804" type="line"/>
      <point x="1058" y="376" type="line"/>
      <point x="863" y="376" type="line"/>
      <point x="863" y="634" type="line"/>
      <point x="58" y="634" type="line"/>
      <point x="58" y="804" type="line"/>
    </contour>
  </outline>
</glyph>
<glyph name="degree" format="2">
  <advance width="765"/>
  <unicode hex="00B0"/>
  <outline>
    <contour>
      <point x="131" y="1217" type="qcurve" smooth="yes"/>
      <point x="131.0" y="1323.0"/>
      <point x="282.2686567164179" y="1477.0"/>
      <point x="386" y="1477" type="qcurve" smooth="yes"/>
      <point x="488.98507462686564" y="1477.0"/>
      <point x="637.0" y="1322.9701492537313"/>
      <point x="637" y="1217" type="qcurve" smooth="yes"/>
      <point x="637.0" y="1110.2835820895523"/>
      <point x="488.98507462686564" y="960.0"/>
      <point x="386" y="960" type="qcurve" smooth="yes"/>
      <point x="282.2686567164179" y="960.0"/>
      <point x="131.0" y="1110"/>
    </contour>
    <contour>
      <point x="255" y="1217" type="qcurve" smooth="yes"/>
      <point x="255.0" y="1162.0"/>
      <point x="332" y="1088.0"/>
      <point x="386" y="1088" type="qcurve" smooth="yes"/>
      <point x="440" y="1088.0"/>
      <point x="513.0" y="1162"/>
      <point x="513" y="1217" type="qcurve" smooth="yes"/>
      <point x="513.0" y="1273"/>
      <point x="440" y="1349.0"/>
      <point x="386" y="1349" type="qcurve" smooth="yes"/>
      <point x="332" y="1349.0"/>
      <point x="255.0" y="1273"/>
    </contour>
  </outline>
</glyph>
<glyph name="guillemotright" format="2">
  <advance width="1165"/>
  <unicode hex="00BB"/>
  <guideline x="0.0" y="98.0" angle="0.0" identifier="MTEldNnfdj"/>
  <guideline x="0.0" y="443.0" angle="0.0" identifier="G9bQni2n1K"/>
  <outline>
    <contour>
      <point x="530" y="153" type="line"/>
      <point x="848" y="551" type="line"/>
      <point x="530" y="949" type="line"/>
      <point x="702" y="949" type="line"/>
      <point x="1057" y="580" type="line"/>
      <point x="1057" y="521" type="line"/>
      <point x="702" y="153" type="line"/>
    </contour>
    <contour>
      <point x="80" y="153" type="line"/>
      <point x="398" y="551" type="line"/>
      <point x="80" y="949" type="line"/>
      <point x="252" y="949" type="line"/>
      <point x="607" y="580" type="line"/>
      <point x="607" y="521" type="line"/>
      <point x="252" y="153" type="line"/>
    </contour>
  </outline>
</glyph>
<glyph name="dagger" format="2">
  <advance width="1128"/>
  <unicode hex="2020"/>
  <outline>
    <contour>
      <point x="466" y="-274" type="qcurve"/>
      <point x="462" y="8" type="line"/>
      <point x="483" y="748" type="line"/>
      <point x="483" y="852" type="line"/>
      <point x="72" y="852" type="line"/>
      <point x="72" y="1025" type="line"/>
      <point x="479" y="1025" type="line"/>
      <point x="466" y="1508" type="line"/>
      <point x="657" y="1508" type="line"/>
      <point x="644" y="1025" type="line"/>
      <point x="1051" y="1025" type="line"/>
      <point x="1051" y="852" type="line"/>
      <point x="640" y="852" type="line"/>
      <point x="640" y="748" type="line"/>
      <point x="661" y="8" type="line"/>
      <point x="657" y="-274" type="line"/>
      <point x="584.0" y="-415.0"/>
      <point x="540.0" y="-416.0"/>
    </contour>
  </outline>
</glyph>
<glyph name="foursuperior" format="2">
  <advance width="871"/>
  <unicode hex="2074"/>
  <outline>
    <contour>
      <point x="61" y="880" type="line"/>
      <point x="54" y="982" type="line"/>
      <point x="552" y="1496" type="line"/>
      <point x="718" y="1496" type="line"/>
      <point x="502" y="1270" type="line"/>
      <point x="254" y="1010" type="line"/>
      <point x="820" y="1010" type="line"/>
      <point x="820" y="880" type="line"/>
    </contour>
    <contour>
      <point x="712.0" y="1496.0" type="line"/>
      <point x="712.0" y="697.0" type="line"/>
      <point x="555.0" y="697.0" type="line"/>
      <point x="555.0" y="1496.0" type="line"/>
    </contour>
  </outline>
</glyph>
<glyph name="trademark" format="2">
  <advance width="2010"/>
  <unicode hex="2122"/>
  <outline>
    <contour>
      <point x="24" y="1288.0" type="line"/>
      <point x="24" y="1446.0" type="line"/>
      <point x="784" y="1446.0" type="line"/>
      <point x="784" y="1288.0" type="line"/>
      <point x="496" y="1288.0" type="line"/>
      <point x="496" y="690.0" type="line"/>
      <point x="312" y="690.0" type="line"/>
      <point x="312" y="1288.0" type="line"/>
    </contour>
    <contour>
      <point x="910" y="690.0" type="line"/>
      <point x="910" y="1446.0" type="line"/>
      <point x="1094" y="1446.0" type="line"/>
      <point x="1368" y="866.0" type="line"/>
      <point x="1377" y="866.0" type="line"/>
      <point x="1656" y="1446.0" type="line"/>
      <point x="1840" y="1446.0" type="line"/>
      <point x="1840" y="690.0" type="line"/>
      <point x="1680" y="690.0" type="line"/>
      <point x="1680" y="1165.0" type="line"/>
      <point x="1667" y="1165.0" type="line"/>
      <point x="1446" y="690.0" type="line"/>
      <point x="1300" y="690.0" type="line"/>
      <point x="1090" y="1165.0" type="line"/>
      <point x="1077" y="1165.0" type="line"/>
      <point x="1077" y="690.0" type="line"/>
    </contour>
  </outline>
</glyph>
<glyph name="notequal" format="2">
  <advance width="1278"/>
  <unicode hex="2260"/>
  <outline>
    <contour>
      <point x="1010" y="1181" type="line"/>
      <point x="830" y="861" type="line"/>
      <point x="803" y="832" type="line"/>
      <point x="589" y="461" type="line"/>
      <point x="585" y="437" type="line"/>
      <point x="384" y="89" type="line"/>
      <point x="246" y="169" type="line"/>
      <point x="406" y="447" type="line"/>
      <point x="429" y="469" type="line"/>
      <point x="636" y="828" type="line"/>
      <point x="647" y="864" type="line"/>
      <point x="872" y="1261" type="line"/>
    </contour>
    <contour>
      <point x="152" y="387" type="line"/>
      <point x="152" y="556" type="line"/>
      <point x="1126" y="556" type="line"/>
      <point x="1126" y="387" type="line"/>
    </contour>
    <contour>
      <point x="152" y="792" type="line"/>
      <point x="152" y="961" type="line"/>
      <point x="1126" y="961" type="line"/>
      <point x="1126" y="792" type="line"/>
    </contour>
  </outline>
</glyph>
<glyph name="gravecomb.case" format="2">
  <advance width="1024"/>
  <outline>
    <contour>
      <point x="473" y="1580" type="line"/>
      <point x="186" y="1925" type="line"/>
      <point x="361" y="2003" type="line"/>
      <point x="595" y="1639" type="line"/>
    </contour>
  </outline>
</glyph>
